<?xml version="1.0" standalone="no"?>
<!DOCTYPE svg PUBLIC "-//W3C//DTD SVG 20010904//EN"
 "http://www.w3.org/TR/2001/REC-SVG-20010904/DTD/svg10.dtd">
<svg version="1.0" xmlns="http://www.w3.org/2000/svg"
 width="760.000000pt" height="760.000000pt" viewBox="0 0 760.000000 760.000000"
 preserveAspectRatio="xMidYMid meet">
<metadata>
Created by potrace 1.14, written by Peter Selinger 2001-2017
</metadata>
<g transform="translate(0.000000,760.000000) scale(0.100000,-0.100000)"
fill="#000000" stroke="none">
<path d="M2250 6214 c0 -6 -16 -10 -36 -9 -21 0 -38 -5 -41 -12 -3 -7 -11 -13
-18 -13 -11 0 -74 -65 -76 -79 0 -3 -3 -15 -5 -26 -8 -33 -8 -140 -1 -152 4
-6 1 -13 -5 -16 -10 -3 -9 -8 2 -22 14 -17 13 -18 -3 -12 -16 6 -16 5 0 -20
17 -26 17 -27 -1 -20 -16 6 -17 5 -6 -8 7 -8 10 -24 7 -35 -3 -11 -1 -23 5
-26 6 -4 5 -9 -3 -14 -10 -7 -10 -12 2 -26 13 -16 12 -17 -5 -11 -14 6 -16 4
-9 -5 6 -7 10 -49 9 -93 -1 -44 3 -88 7 -99 6 -13 6 -16 -2 -12 -15 10 -14 -7
2 -23 10 -12 9 -13 -7 -7 -16 5 -17 4 -6 -9 7 -8 10 -23 7 -34 -2 -10 0 -26 6
-36 6 -12 6 -16 -1 -11 -6 4 -10 -2 -9 -14 1 -11 6 -20 12 -20 5 0 4 -4 -3 -9
-8 -4 -14 -12 -14 -16 0 -4 6 -12 14 -16 7 -5 8 -9 2 -9 -6 0 -11 -7 -11 -15
0 -8 5 -15 11 -15 6 0 5 -4 -2 -9 -17 -11 -17 -21 0 -32 7 -5 8 -9 2 -9 -11 0
-10 -51 1 -71 5 -8 4 -10 -3 -5 -16 10 -15 -7 1 -23 6 -8 7 -11 1 -8 -12 7
-12 -52 0 -71 3 -6 0 -13 -6 -15 -10 -4 -10 -8 1 -15 11 -8 10 -12 -5 -21 -11
-6 -13 -11 -6 -11 7 0 11 -11 10 -28 -1 -15 2 -34 7 -41 5 -9 4 -12 -3 -7 -7
4 -10 -1 -9 -14 1 -11 6 -20 12 -20 5 0 4 -4 -3 -9 -17 -11 -17 -21 0 -32 7
-5 8 -9 2 -9 -6 0 -11 -7 -11 -15 0 -8 5 -15 11 -15 6 0 5 -4 -2 -9 -17 -11
-17 -21 0 -32 7 -5 9 -9 3 -9 -11 0 -12 -161 -1 -178 3 -6 0 -13 -6 -15 -10
-4 -10 -8 1 -15 11 -8 10 -12 -5 -21 -11 -6 -13 -11 -6 -11 7 0 11 -11 10 -28
-1 -15 2 -34 7 -41 5 -8 4 -12 -1 -8 -11 6 -10 -256 1 -274 5 -8 4 -10 -3 -5
-16 10 -15 -7 1 -23 10 -12 9 -13 -7 -7 -14 5 -16 3 -9 -6 6 -7 10 -69 10
-139 0 -69 4 -132 8 -139 5 -9 4 -11 -3 -6 -16 10 -15 -7 1 -23 10 -12 9 -13
-7 -7 -15 5 -16 4 -8 -6 6 -7 10 -49 9 -94 0 -44 3 -85 6 -91 4 -6 1 -14 -5
-16 -10 -4 -10 -8 1 -15 11 -8 10 -12 -5 -21 -11 -6 -13 -11 -6 -11 7 0 11
-11 10 -28 -1 -15 2 -34 7 -41 5 -9 4 -12 -3 -7 -7 4 -10 -1 -9 -14 1 -11 6
-20 12 -20 5 0 4 -4 -3 -9 -17 -11 -17 -21 0 -32 7 -5 8 -9 2 -9 -14 0 -14
-30 0 -30 6 0 5 -4 -2 -9 -17 -11 -17 -21 0 -32 7 -5 9 -9 3 -9 -11 0 -12
-161 -1 -178 3 -6 0 -13 -6 -15 -10 -4 -10 -8 1 -15 11 -8 10 -12 -5 -21 -11
-6 -13 -11 -6 -11 7 0 11 -11 10 -28 -1 -15 2 -34 7 -41 5 -9 4 -12 -3 -7 -7
4 -10 -1 -9 -14 1 -11 6 -20 12 -20 5 0 4 -4 -3 -9 -17 -11 -17 -21 0 -32 7
-5 8 -9 2 -9 -6 0 -11 -7 -11 -15 0 -8 5 -15 11 -15 6 0 5 -4 -2 -9 -17 -11
-17 -21 0 -32 7 -5 9 -9 3 -9 -12 0 -11 -172 0 -191 5 -8 4 -10 -3 -5 -16 10
-15 -7 1 -23 10 -12 9 -13 -7 -7 -16 5 -17 4 -6 -9 7 -8 10 -23 7 -34 -2 -10
0 -26 6 -36 6 -12 6 -16 -1 -11 -6 4 -10 -2 -9 -14 1 -11 6 -20 12 -20 5 0 4
-4 -3 -9 -17 -11 -17 -21 0 -32 7 -5 8 -9 2 -9 -6 0 -11 -7 -11 -15 0 -8 5
-15 11 -15 6 0 5 -4 -2 -9 -8 -4 -14 -12 -14 -16 0 -4 6 -12 14 -16 10 -7 10
-9 0 -9 -9 0 -10 -5 -3 -19 6 -10 7 -21 4 -25 -9 -9 -7 -131 2 -146 5 -9 4
-11 -3 -6 -16 10 -15 -7 1 -23 10 -12 9 -13 -7 -7 -16 5 -17 4 -6 -9 7 -8 10
-23 7 -34 -2 -10 0 -26 6 -36 7 -13 6 -16 -2 -10 -15 9 -11 -26 4 -37 6 -5 6
-8 -1 -8 -7 0 -9 -15 -4 -45 4 -25 5 -45 2 -45 -2 0 2 -8 9 -17 10 -12 10 -15
1 -9 -7 4 -3 -9 8 -29 11 -20 16 -34 10 -30 -5 3 -10 2 -10 -3 0 -6 7 -12 15
-16 8 -3 12 -12 9 -21 -3 -8 -1 -15 5 -15 6 0 11 -7 11 -15 0 -8 5 -15 11 -15
5 0 8 -4 5 -9 -3 -5 1 -14 9 -21 8 -7 15 -19 15 -27 0 -8 5 -11 12 -7 8 5 9 2
5 -9 -4 -10 -1 -17 6 -17 17 0 47 -36 39 -46 -4 -4 -2 -4 5 -1 6 4 23 -7 37
-24 14 -17 26 -27 26 -22 1 4 9 -2 19 -14 10 -12 21 -20 23 -17 3 2 25 -7 48
-20 24 -14 47 -23 52 -20 4 3 8 1 8 -3 0 -5 12 -10 27 -11 15 -1 30 -8 35 -15
6 -9 8 -9 8 1 0 9 5 10 18 3 11 -6 32 -9 48 -7 16 1 35 -2 43 -8 11 -8 13 -8
8 1 -9 15 44 13 55 -2 5 -7 8 -6 8 0 0 11 45 13 56 2 3 -3 16 -2 29 3 14 5 26
5 34 -3 6 -6 11 -7 11 -2 0 6 11 11 25 11 16 1 22 -2 18 -10 -4 -6 0 -5 9 2
11 9 18 10 23 2 4 -6 12 -7 24 -1 10 6 23 6 31 1 8 -5 21 -5 30 0 11 6 21 5
28 -2 9 -9 12 -9 12 -1 0 12 25 12 36 0 4 -3 14 -3 23 1 20 9 52 8 69 -1 6 -5
12 -5 12 0 0 9 57 9 66 0 3 -3 16 -2 28 2 27 9 88 7 106 -4 9 -5 11 -4 6 4 -6
9 0 10 21 5 15 -4 30 -8 32 -10 2 -2 10 1 17 7 8 7 14 7 19 -1 4 -6 12 -7 24
-1 10 6 23 6 31 1 8 -5 21 -5 31 1 12 6 20 5 25 -2 5 -8 8 -8 13 0 5 7 17 8
39 2 18 -6 30 -6 27 -2 -5 10 52 7 61 -2 3 -3 16 -2 28 2 27 9 88 7 106 -4 9
-5 11 -4 6 4 -6 9 0 10 21 5 15 -4 30 -8 32 -10 2 -2 10 1 17 7 8 7 14 7 19
-1 4 -6 12 -7 24 -1 10 6 23 6 31 1 8 -5 21 -5 31 1 12 6 20 5 25 -2 5 -8 8
-8 13 0 5 7 17 8 39 2 20 -6 30 -6 27 0 -8 12 2 11 27 -2 15 -8 19 -8 13 0 -5
8 2 10 22 5 15 -4 30 -8 32 -10 2 -2 10 1 17 7 8 7 14 7 19 -1 4 -6 12 -7 24
-1 10 6 23 6 31 1 8 -5 21 -5 31 1 12 6 20 5 25 -2 5 -8 8 -8 13 0 5 7 17 8
39 2 20 -6 30 -6 27 0 -8 12 2 11 27 -2 15 -8 19 -8 13 0 -5 8 2 10 22 5 15
-4 30 -8 32 -10 2 -2 10 1 17 7 8 7 14 7 19 -1 4 -6 12 -7 24 -1 10 6 23 6 31
1 8 -5 21 -5 31 1 12 6 20 5 25 -2 5 -8 8 -8 13 0 5 7 17 8 39 2 20 -6 30 -6
27 0 -8 11 -7 11 33 0 18 -6 30 -6 28 -2 -4 6 56 7 74 0 3 -1 10 0 15 1 6 1
33 3 60 5 28 2 63 9 79 14 15 6 31 9 36 6 5 -3 15 2 24 11 9 8 20 13 25 10 5
-3 19 4 33 17 13 12 29 22 36 23 29 2 33 5 27 14 -3 6 3 10 15 10 12 0 18 5
15 10 -3 6 -2 10 4 10 9 0 81 65 81 74 0 3 11 17 25 32 14 15 25 33 25 40 0 8
5 14 11 14 5 0 8 4 5 9 -3 5 1 14 9 21 8 7 15 21 15 31 0 10 5 21 11 24 6 4 8
13 5 21 -3 7 0 19 7 26 14 15 15 37 3 57 -6 10 -5 12 3 7 8 -5 11 2 11 21 -1
15 0 47 2 71 2 23 -1 42 -7 42 -5 0 -4 4 4 9 11 7 11 9 0 14 -10 4 -10 6 -2 6
9 1 10 8 3 26 -5 14 -6 25 -1 25 9 0 5 55 -4 71 -4 5 -3 9 2 9 12 0 10 74 -2
82 -7 5 -7 8 0 8 6 0 10 16 10 35 0 19 -4 35 -8 35 -4 0 -4 8 2 17 5 10 5 26
0 40 -5 13 -5 23 -1 23 4 0 8 9 8 20 0 11 -5 20 -11 20 -5 0 -3 5 5 10 11 7
11 10 2 10 -7 0 -10 5 -7 11 11 17 11 89 0 89 -5 0 -4 4 4 9 11 7 11 9 0 14
-10 4 -10 6 -2 6 9 1 10 8 3 26 -5 14 -6 25 -2 25 4 0 7 18 7 40 0 22 -4 40
-10 40 -7 0 -7 3 0 8 6 4 10 21 10 37 0 17 -4 33 -10 37 -6 5 -4 8 5 8 13 0
13 1 0 10 -10 6 -11 10 -3 10 9 0 10 7 3 25 -5 14 -6 25 -2 25 4 0 8 9 8 20 0
11 -5 20 -11 20 -5 0 -3 5 5 10 11 7 11 10 2 10 -7 0 -10 5 -7 11 11 17 11 89
0 89 -5 0 -3 5 5 10 13 9 13 10 0 10 -13 0 -13 1 0 10 13 9 13 10 0 10 -13 0
-13 1 0 10 11 7 11 10 2 10 -7 0 -10 5 -7 11 11 17 11 89 0 89 -5 0 -4 4 4 9
11 7 11 9 0 14 -10 4 -10 6 -2 6 9 1 10 8 3 26 -5 14 -6 25 -2 25 4 0 7 18 7
40 0 22 -4 40 -10 40 -7 0 -7 3 0 8 6 4 10 21 10 37 0 17 -4 33 -10 37 -6 5
-4 8 5 8 13 0 13 1 0 10 -10 6 -11 10 -3 10 9 0 10 7 3 25 -5 14 -6 25 -2 25
4 0 8 9 8 20 0 11 -5 20 -11 20 -5 0 -3 5 5 10 11 7 11 10 2 10 -7 0 -10 5 -7
11 11 17 11 89 0 89 -5 0 -3 5 5 10 13 9 13 10 0 10 -13 0 -13 1 0 10 13 9 13
10 0 10 -13 0 -13 1 0 10 11 7 11 10 2 10 -7 0 -10 5 -7 11 11 17 11 89 0 89
-5 0 -4 4 4 9 11 7 11 9 0 14 -10 4 -10 6 -2 6 9 1 10 8 3 26 -5 14 -6 25 -2
25 4 0 7 18 7 40 0 22 -4 40 -10 40 -7 0 -7 3 0 8 6 4 10 21 10 37 0 17 -4 33
-10 37 -6 5 -4 8 5 8 13 0 13 1 0 10 -10 6 -11 10 -3 10 9 0 10 7 3 25 -5 14
-6 25 -2 25 4 0 8 9 8 20 0 11 -5 20 -11 20 -5 0 -3 5 5 10 11 7 11 10 2 10
-7 0 -10 5 -7 11 11 17 11 89 0 89 -5 0 -3 5 5 10 13 9 13 10 0 10 -13 0 -13
1 0 10 13 9 13 10 0 10 -13 0 -13 1 0 10 11 7 11 10 2 10 -7 0 -10 5 -7 11 11
17 11 89 0 89 -5 0 -4 4 4 9 11 7 11 9 0 14 -10 4 -10 6 -2 6 9 1 10 8 3 26
-5 14 -6 25 -2 25 4 0 7 18 7 40 0 22 -4 40 -10 40 -7 0 -7 3 0 8 6 4 10 21
10 37 0 17 -4 33 -10 37 -6 5 -4 8 5 8 13 0 13 1 0 10 -10 6 -11 10 -3 10 9 0
10 7 3 25 -5 14 -6 25 -2 25 4 0 8 9 8 20 0 11 -5 20 -11 20 -5 0 -3 5 5 10
11 7 11 10 2 10 -7 0 -10 5 -7 11 11 17 11 89 0 89 -5 0 -3 5 5 10 13 9 13 10
0 10 -13 0 -13 1 0 10 13 9 13 10 0 10 -13 0 -13 1 0 10 11 7 11 10 2 10 -7 0
-10 5 -7 11 11 17 11 89 0 89 -5 0 -4 4 4 9 11 7 11 9 0 14 -10 4 -10 6 -2 6
9 1 10 8 3 26 -5 14 -6 25 -2 25 4 0 7 18 7 40 0 22 -4 40 -10 40 -7 0 -7 3 0
8 6 4 10 21 10 37 0 17 -4 33 -10 37 -6 5 -4 8 5 8 13 0 13 1 0 10 -10 6 -11
10 -3 10 9 0 10 7 3 25 -5 14 -6 25 -2 25 4 0 8 9 8 20 0 11 -5 20 -11 20 -5
0 -3 5 5 10 13 9 13 10 0 10 -13 0 -13 1 0 10 13 9 13 10 0 10 -9 0 -11 3 -5
8 6 4 10 31 10 60 0 28 -4 52 -10 52 -5 0 -3 5 5 10 11 7 11 10 2 10 -7 0 -10
5 -7 11 11 17 11 89 0 89 -5 0 -4 4 4 9 11 7 11 9 0 14 -10 4 -10 6 -2 6 9 1
10 8 3 26 -5 14 -6 25 -2 25 11 0 8 74 -3 82 -6 5 -5 8 4 8 11 0 11 3 1 15 -8
9 -8 15 -2 15 7 0 8 10 2 30 -5 17 -6 30 -3 30 3 0 -1 8 -8 17 -12 15 -12 16
1 8 8 -4 4 4 -10 20 -48 54 -69 73 -74 68 -3 -3 -8 1 -11 9 -3 7 -18 14 -33
13 -15 0 -30 4 -34 10 -5 6 -8 5 -8 -3 0 -10 -5 -10 -20 -2 -15 8 -20 8 -20
-2 0 -9 -3 -9 -10 2 -9 13 -10 13 -10 0 0 -13 -1 -13 -10 0 -9 13 -10 13 -10
0 0 -13 -1 -13 -10 0 -5 8 -10 10 -10 4 0 -8 -13 -9 -40 -4 -23 4 -40 3 -40
-2 0 -5 -5 -6 -11 -2 -18 11 -89 10 -89 -1 0 -5 -5 -3 -10 5 -9 13 -10 13 -10
0 0 -13 -1 -13 -10 0 -9 13 -10 13 -10 0 0 -13 -1 -13 -10 0 -7 11 -10 11 -10
2 0 -10 -5 -10 -20 -2 -15 8 -20 8 -20 -1 0 -8 -4 -9 -13 0 -8 6 -16 9 -18 7
-2 -2 -24 -6 -48 -10 -42 -6 -111 -40 -111 -55 0 -5 -11 -20 -25 -35 -13 -14
-19 -26 -13 -26 7 0 6 -5 -2 -15 -10 -12 -10 -15 1 -15 9 -1 8 -4 -4 -11 -9
-6 -15 -15 -11 -20 3 -5 1 -16 -6 -24 -7 -9 -8 -15 0 -20 7 -4 7 -12 0 -25 -6
-11 -10 -23 -9 -27 3 -19 -2 -34 -9 -29 -5 3 -6 -9 -4 -26 3 -20 1 -29 -6 -24
-7 4 -9 -1 -7 -14 2 -11 0 -20 -4 -20 -5 0 -12 -15 -15 -34 -4 -19 -13 -37
-21 -40 -8 -3 -12 -12 -9 -21 3 -8 1 -15 -6 -15 -6 0 -8 -4 -5 -10 3 -5 1 -10
-4 -10 -6 0 -11 -7 -11 -15 0 -8 -5 -15 -10 -15 -6 0 -9 -3 -9 -7 3 -21 -3
-33 -17 -33 -8 0 -13 -4 -9 -9 3 -5 -8 -24 -25 -42 -16 -19 -30 -37 -30 -42 0
-4 -4 -5 -10 -2 -5 3 -10 1 -10 -5 0 -15 -25 -40 -40 -40 -6 0 -8 -4 -5 -10 3
-5 1 -10 -5 -10 -5 0 -24 -12 -40 -27 -51 -47 -58 -52 -64 -46 -3 4 -6 1 -6
-5 0 -6 -24 -23 -52 -37 -29 -15 -62 -34 -72 -43 -11 -10 -16 -11 -11 -3 5 8
-2 7 -19 -4 -15 -10 -29 -15 -33 -12 -3 3 -12 -1 -20 -9 -9 -8 -20 -13 -27
-11 -6 2 -17 -3 -24 -12 -8 -9 -11 -10 -7 -3 3 6 1 12 -4 12 -6 0 -11 -5 -11
-11 0 -7 -10 -9 -25 -7 -14 3 -28 1 -31 -4 -3 -5 -14 -6 -25 -3 -10 4 -19 2
-19 -3 0 -5 -29 -9 -65 -8 -36 0 -65 -3 -65 -7 0 -5 -4 -5 -10 -2 -5 3 -40 8
-77 11 -38 2 -75 5 -83 6 -8 0 -21 5 -27 11 -7 5 -13 7 -13 3 0 -3 -15 0 -34
8 -19 8 -37 12 -40 9 -3 -3 -17 2 -30 11 -14 9 -32 16 -41 16 -8 0 -15 4 -15
10 0 5 -3 9 -7 8 -15 -4 -73 21 -73 32 0 6 -4 8 -10 5 -5 -3 -10 -1 -10 5 0 6
-4 9 -9 6 -5 -3 -12 1 -15 10 -3 8 -10 12 -16 9 -5 -3 -10 -1 -10 4 0 6 -7 11
-15 11 -8 0 -15 7 -15 15 0 9 -6 12 -17 8 -11 -4 -14 -3 -9 5 4 7 2 12 -4 12
-6 0 -8 5 -4 12 4 6 3 8 -4 4 -6 -3 -13 -2 -17 4 -4 6 -11 8 -16 5 -5 -4 -9
-1 -9 5 0 13 -57 70 -71 70 -6 0 -7 5 -4 10 3 6 1 10 -6 10 -7 0 -9 3 -6 6 3
4 -6 18 -21 33 -15 14 -28 33 -30 41 -2 8 -7 17 -12 20 -5 3 -10 12 -12 20 -2
8 -11 21 -20 28 -10 7 -18 22 -18 32 0 10 -4 22 -10 25 -5 3 -10 17 -10 30 0
13 -4 25 -10 27 -5 2 -11 13 -13 25 -2 12 -6 26 -10 29 -4 4 -7 20 -7 36 0 16
-4 27 -9 24 -12 -8 -8 27 4 36 6 5 5 8 -2 8 -8 0 -13 13 -13 30 0 17 -5 30
-12 30 -8 0 -9 3 -3 8 14 10 17 32 4 32 -6 0 -9 9 -6 20 3 11 0 18 -6 17 -6
-1 -12 4 -13 11 -1 6 -2 17 -3 23 0 5 -5 7 -11 4 -5 -3 -10 1 -10 9 0 8 -9 18
-20 21 -11 3 -20 10 -20 14 0 4 -6 8 -12 9 -21 1 -82 13 -95 17 -7 2 -13 1
-13 -3 0 -11 -54 -9 -62 3 -5 6 -8 4 -8 -5 0 -13 -1 -13 -10 0 -8 12 -11 13
-19 1 -7 -11 -9 -11 -14 0 -4 11 -6 11 -6 1 -1 -10 -6 -10 -21 -2 -11 6 -20 7
-20 2 0 -5 -18 -6 -40 -2 -22 4 -40 4 -40 1 0 -8 -59 -5 -82 4 -12 5 -18 2
-18 -6 0 -11 -3 -11 -10 1 -9 13 -10 13 -10 0 0 -13 -1 -13 -10 0 -9 13 -10
13 -10 0 0 -13 -1 -13 -10 0 -5 8 -10 10 -10 4z m55 -155 c-6 11 -2 13 19 7
21 -5 26 -4 20 6 -5 10 -4 11 7 1 16 -16 33 -17 23 -1 -5 7 -3 8 7 2 24 -14
51 -16 43 -2 -6 10 -4 11 7 1 16 -16 33 -17 23 -1 -5 7 -3 8 7 3 16 -10 104
-9 121 1 7 5 8 3 3 -6 -6 -9 2 -11 34 -6 29 4 41 2 41 -7 0 -8 4 -6 10 3 7 12
13 13 27 3 10 -6 17 -16 15 -22 -1 -6 2 -11 7 -11 5 0 8 -11 6 -25 -1 -14 2
-25 8 -25 6 0 5 -5 -1 -13 -9 -10 -7 -20 5 -37 13 -19 14 -25 4 -28 -9 -3 -10
-7 -2 -11 6 -4 13 -18 15 -31 2 -14 5 -27 6 -30 2 -3 2 -8 1 -12 0 -5 3 -8 9
-8 5 0 10 -5 10 -11 0 -5 -6 -7 -12 -3 -7 4 -5 -2 5 -13 9 -11 17 -27 17 -36
0 -9 4 -17 9 -17 5 0 12 -7 15 -16 3 -8 2 -12 -4 -9 -5 3 3 -16 17 -42 15 -27
33 -52 40 -56 7 -5 11 -13 7 -18 -3 -6 4 -18 16 -29 12 -10 21 -21 21 -24 -3
-20 1 -26 15 -26 8 0 13 -4 9 -10 -3 -5 5 -20 17 -32 13 -13 22 -26 21 -30 -2
-5 2 -8 7 -8 6 0 34 -24 64 -54 30 -30 57 -52 60 -49 3 4 6 -1 6 -11 0 -9 4
-15 9 -11 5 3 16 -4 24 -15 7 -11 17 -17 20 -13 4 3 7 1 7 -6 0 -7 5 -9 10 -6
6 3 10 1 10 -4 0 -6 6 -11 14 -11 8 0 17 -7 20 -16 3 -8 10 -12 16 -9 5 3 10
2 10 -3 0 -4 16 -14 35 -22 19 -8 35 -18 35 -24 0 -5 3 -7 6 -3 4 3 24 -3 46
-14 21 -11 43 -17 47 -14 5 3 11 1 13 -5 1 -5 15 -11 30 -12 15 -1 29 -7 32
-13 2 -6 20 -10 40 -9 20 1 36 -1 36 -5 0 -4 17 -8 38 -9 45 -2 78 -8 94 -18
7 -5 8 -3 3 7 -8 12 -6 12 8 0 14 -11 17 -11 17 0 0 11 2 11 10 -1 8 -12 10
-12 10 -1 0 11 3 11 17 0 15 -12 16 -12 8 1 -8 13 -7 13 10 0 14 -12 19 -12
23 -2 3 9 7 10 17 2 10 -8 15 -8 20 0 5 8 11 7 23 -2 11 -9 14 -9 9 -1 -6 9 2
11 28 9 19 -1 35 2 36 8 0 6 3 5 6 -2 4 -10 8 -9 19 5 12 16 15 16 24 3 6 -9
10 -10 10 -3 0 6 9 10 20 8 11 -2 20 0 20 5 0 5 7 7 15 4 8 -4 15 -1 15 4 0 6
9 9 20 7 11 -2 20 1 20 6 0 6 6 9 13 6 6 -2 18 3 25 12 8 9 11 10 7 4 -3 -7
-1 -13 4 -13 6 0 11 4 11 8 0 11 61 32 73 25 6 -3 7 -1 3 5 -6 10 30 28 47 24
4 -1 7 5 7 13 0 9 6 12 17 8 11 -4 14 -3 9 5 -4 7 -1 12 8 12 9 0 25 9 35 19
11 11 22 17 25 13 3 -3 6 1 6 8 0 7 3 11 6 8 3 -4 21 8 39 25 19 18 54 50 77
72 24 22 42 41 41 42 -5 5 37 43 48 43 5 0 8 4 4 9 -3 6 3 14 12 20 10 6 14
11 9 11 -5 0 1 9 14 20 14 12 18 20 9 20 -8 0 -4 7 9 16 12 8 20 20 17 25 -4
5 1 12 9 15 9 3 13 10 10 15 -3 5 0 9 6 9 7 0 9 7 6 15 -3 9 1 18 8 21 12 5
31 51 26 62 -1 2 7 10 17 19 10 8 11 11 3 7 -12 -7 -13 -5 -3 8 7 8 10 18 6
21 -3 4 -1 7 6 7 7 0 10 4 7 8 -3 5 1 20 9 35 10 20 11 27 2 28 -9 0 -8 2 1 6
6 2 10 9 6 14 -3 5 -1 9 4 9 5 0 8 11 7 25 -2 14 1 27 5 30 5 3 6 13 3 22 -4
10 -2 14 4 10 6 -4 9 4 7 20 -1 14 2 37 7 50 8 21 14 24 35 19 19 -5 24 -4 18
6 -5 10 -4 10 6 1 9 -9 17 -9 26 -2 8 7 14 7 19 -1 4 -7 13 -7 27 1 13 7 18 7
14 1 -4 -7 12 -10 43 -9 30 1 47 6 43 12 -3 5 2 4 12 -4 15 -13 19 -13 27 0 6
10 9 10 9 2 0 -7 5 -13 11 -13 5 0 7 6 3 13 -5 7 -1 7 10 -2 14 -12 19 -12 26
-2 5 9 10 10 14 2 5 -8 13 -8 28 0 16 9 19 8 13 -2 -6 -8 -4 -11 7 -6 9 3 21
0 28 -6 10 -9 11 -9 5 1 -5 10 1 13 26 10 19 -2 39 -8 45 -14 9 -8 11 -542 10
-2075 -1 -1829 -3 -2064 -16 -2061 -12 3 -12 1 -3 -9 8 -8 9 -19 3 -35 -5 -13
-6 -24 -2 -24 4 0 2 -4 -3 -8 -12 -8 -39 -64 -37 -74 1 -4 -7 -12 -18 -18 -11
-6 -19 -14 -17 -18 4 -7 -53 -65 -69 -69 -5 -2 -21 -14 -36 -29 -15 -14 -32
-23 -38 -19 -5 3 -10 1 -10 -5 0 -6 -5 -8 -10 -5 -6 4 -17 1 -25 -5 -8 -6 -19
-9 -25 -5 -5 3 -10 1 -10 -5 0 -7 -7 -10 -15 -7 -8 4 -17 2 -21 -4 -4 -7 -10
-6 -19 1 -7 6 -16 7 -19 2 -6 -10 -96 -10 -113 1 -6 4 -14 3 -18 -3 -3 -5 -18
-7 -32 -4 -19 5 -24 4 -18 -6 5 -9 3 -10 -11 -2 -11 5 -48 8 -84 7 -36 -2 -70
1 -77 7 -7 5 -13 5 -17 0 -6 -11 -125 -10 -143 1 -6 4 -15 3 -18 -3 -4 -6 -16
-8 -27 -4 -16 5 -19 3 -12 -7 6 -11 5 -12 -7 -3 -8 6 -47 10 -89 9 -41 -2 -80
2 -87 7 -7 5 -14 5 -18 -2 -3 -5 -18 -7 -32 -4 -19 5 -24 4 -18 -6 6 -9 3 -10
-11 -2 -11 5 -49 8 -86 7 -38 -2 -71 1 -74 6 -3 5 -11 6 -17 2 -17 -11 -210
-12 -224 -1 -7 5 -14 5 -18 -2 -4 -6 -16 -8 -27 -4 -16 5 -19 3 -12 -7 6 -11
5 -12 -7 -3 -8 6 -59 10 -129 9 -63 -1 -120 2 -127 7 -7 5 -14 5 -18 -2 -3 -5
-18 -7 -32 -4 -19 5 -24 4 -18 -6 6 -9 3 -10 -11 -2 -11 5 -40 8 -67 7 -26 -1
-50 2 -53 7 -3 5 -11 4 -19 -2 -13 -11 -42 -10 -62 3 -6 4 -14 3 -18 -3 -3 -5
-18 -7 -32 -4 -19 5 -24 4 -18 -6 5 -9 3 -10 -11 -3 -11 4 -30 8 -44 8 -14 -1
-28 4 -32 10 -5 7 -8 6 -8 -2 0 -7 -13 -10 -36 -7 -19 2 -33 0 -30 -4 3 -5 -6
-7 -19 -4 -14 2 -22 9 -18 15 4 6 1 7 -8 1 -22 -13 -42 -14 -58 -1 -10 8 -13
8 -8 1 4 -8 -4 -13 -22 -16 -22 -3 -28 -1 -23 11 4 10 2 12 -9 5 -18 -11 -169
-12 -169 -1 0 4 -4 6 -9 3 -14 -9 -111 26 -104 37 3 6 1 7 -5 3 -13 -8 -75 28
-65 37 3 4 -1 7 -10 7 -9 0 -17 5 -17 11 0 5 -4 7 -10 4 -5 -3 -10 3 -10 15 0
12 -4 19 -8 16 -5 -3 -15 4 -23 16 -8 11 -19 26 -25 32 -6 6 -9 17 -6 25 3 8
0 11 -7 7 -9 -6 -16 8 -8 17 1 2 -5 14 -13 27 -9 14 -15 37 -15 52 1 15 -3 24
-7 22 -4 -3 -8 412 -8 922 0 509 -2 930 -5 934 -3 5 -2 11 2 13 5 3 6 436 3
962 -3 526 -3 958 -2 960 2 2 3 80 2 174 -1 154 1 171 17 179 10 5 24 7 31 5
6 -3 12 1 12 8 0 8 8 5 22 -7 12 -10 18 -13 13 -5z"/>
</g>
</svg>
